PathFileType	4	(X/Y/Z)	/Users/itak/Documents/Research/Walk-IL/dataset/trc/00026_00004.trc
DataRate	CameraRate	NumFrames	NumMarkers	Units	OrigDataRate	OrigDataStartFrame	OrigNumFrames
100.000000	100.000000	4	53	mm	100.000000	557	743
Frame#	Time	RPSI			LPSI			L3			STRN			T10			C7			CLAV			RBAK			LBAK			LSHO			LUPA			LAEL			LAOL			LWTS			LWPS			LFRA			LIFD			LHPS			LHTS			RSHO			RUPA			RAEL			RAOL			RWTS			RWPS			RFRA			RIFD			RHTS			RHPS			RBHD			LFHD			RFHD			LBHD			LHIP			RHIP			RASI			LASI			LKNE			LTHI			LANK			LTIP			LTOE			LMT1			LMT5			LHEE			RKNE			RTHI			RANK			RTIP			RTOE			RMT1			RMT5			RHEE			
		X1	Y1	Z1	X2	Y2	Z2	X3	Y3	Z3	X4	Y4	Z4	X5	Y5	Z5	X6	Y6	Z6	X7	Y7	Z7	X8	Y8	Z8	X9	Y9	Z9	X10	Y10	Z10	X11	Y11	Z11	X12	Y12	Z12	X13	Y13	Z13	X14	Y14	Z14	X15	Y15	Z15	X16	Y16	Z16	X17	Y17	Z17	X18	Y18	Z18	X19	Y19	Z19	X20	Y20	Z20	X21	Y21	Z21	X22	Y22	Z22	X23	Y23	Z23	X24	Y24	Z24	X25	Y25	Z25	X26	Y26	Z26	X27	Y27	Z27	X28	Y28	Z28	X29	Y29	Z29	X30	Y30	Z30	X31	Y31	Z31	X32	Y32	Z32	X33	Y33	Z33	X34	Y34	Z34	X35	Y35	Z35	X36	Y36	Z36	X37	Y37	Z37	X38	Y38	Z38	X39	Y39	Z39	X40	Y40	Z40	X41	Y41	Z41	X42	Y42	Z42	X43	Y43	Z43	X44	Y44	Z44	X45	Y45	Z45	X46	Y46	Z46	X47	Y47	Z47	X48	Y48	Z48	X49	Y49	Z49	X50	Y50	Z50	X51	Y51	Z51	X52	Y52	Z52	X53	Y53	Z53	

558	5.57	-718.03125	1056.093994140625	512.5833129882812	-583.3468627929688	1042.702880859375	421.5786437988281	-643.7594604492188	1113.65283203125	452.7516479492188	-535.842041015625	1310.468872070312	643.11962890625	-644.3703002929688	1256.118041992188	418.49853515625	-601.5331420898438	1524.40234375	449.7420349121094	-546.6742553710938	1434.769897460938	597.7679443359375	-702.8314208984375	1391.6005859375	436.5892333984375	-524.0501708984375	1478.22265625	392.5816345214844	-415.6551513671875	1481.395629882812	453.6843872070312	-359.6041870117188	1355.688354492188	393.3910827636719	-337.0369262695312	1141.705322265625	385.471923828125	-441.2054748535156	1121.712158203125	370.7374267578125	-337.3507385253906	968.2054443359375	587.7503662109375	-323.1976623535156	912.7460327148438	519.1685791015625	-318.4602661132812	1041.994262695312	438.6896667480469	-326.9239501953125	827.1475219726562	708.7486572265625	-304.3177490234375	852.8470458984375	591.3956909179688	-308.3749694824219	898.1121826171875	646.6675415039062	-730.440185546875	1518.250732421875	589.0919189453125	-806.3446655273438	1456.581665039062	599.2249145507812	-876.74658203125	1203.506591796875	543.6536865234375	-787.7894897460938	1163.852294921875	517.5614013671875	-865.6918334960938	922.2179565429688	620.1698608398438	-944.4535522460938	931.183837890625	573.0681762695312	-900.9481201171875	1130.563598632812	550.2713623046875	-886.9452514648438	737.1697998046875	594.2936401367188	-893.549072265625	810.6220092773438	634.7296752929688	-954.7091064453125	825.6605834960938	593.4176025390625	-519.922607421875	1704.291137695312	478.6719665527344	-458.6879577636719	1687.217407226562	688.2265014648438	-398.5621948242188	1676.227294921875	611.4000244140625	-604.2567138671875	1716.937744140625	595.2051391601562	-439.5847473144531	937.1581420898438	450.6378479003906	-739.1078491210938	956.0479736328125	672.9171752929688	-623.6897583007812	993.8165283203125	713.3690795898438	-429.569580078125	993.6990356445312	580.1358642578125	-510.3872375488281	501.0882263183594	567.898681640625	-470.7224426269531	632.7305297851562	516.3177490234375	-625.7213745117188	39.75635528564453	429.8888549804688	-560.9931640625	269.2916564941406	474.1192321777344	-660.2088623046875	38.18879699707031	655.0794067382812	-681.1156616210938	46.5772705078125	598.936767578125	-586.2398681640625	40.78378295898438	549.0546264648438	-687.8807373046875	52.95970153808594	369.785888671875	-635.8282470703125	546.6554565429688	803.9380493164062	-708.1476440429688	805.362060546875	738.4739990234375	-770.4473876953125	71.40231323242188	709.83056640625	-666.0261840820312	425.1398315429688	795.2120361328125	-630.0982055664062	60.41115570068359	895.261474609375	-631.5299072265625	61.39873886108398	824.6746826171875	-725.6859130859375	62.90885543823242	851.1229858398438	-756.38427734375	68.44435119628906	640.554443359375	
559	5.58	-715.646240234375	1055.603271484375	522.41259765625	-582.7974243164062	1042.2158203125	428.6898193359375	-643.0316162109375	1113.215942382812	460.7342834472656	-531.0799560546875	1309.8046875	649.2720947265625	-643.9854125976562	1255.682739257812	426.7395935058594	-600.5537109375	1523.8798828125	457.4573059082031	-542.833984375	1434.114013671875	604.2518920898438	-702.0418701171875	1391.113647460938	446.1096801757812	-524.1029663085938	1477.840454101562	398.7952270507812	-414.5472412109375	1480.900146484375	457.7659301757812	-359.7926330566406	1355.087890625	396.3329772949219	-337.8222961425781	1140.896606445312	387.795654296875	-442.4089965820312	1121.371948242188	374.9335327148438	-335.7259826660156	965.9032592773438	589.0464477539062	-322.7603454589844	910.9327392578125	519.8175659179688	-318.9268493652344	1040.745483398438	440.222412109375	-324.0099792480469	823.7177124023438	708.635498046875	-302.9876403808594	850.4192504882812	591.21337890625	-306.1083984375	895.2029418945312	646.9512939453125	-726.7625732421875	1517.568725585938	599.2822875976562	-802.4390869140625	1455.792358398438	610.9152221679688	-873.6785278320312	1202.518676757812	557.0997924804688	-785.2260131835938	1162.940795898438	529.1685791015625	-860.9905395507812	921.2312622070312	633.3790283203125	-940.6478881835938	930.2493896484375	587.8773803710938	-897.6680297851562	1129.6044921875	564.223388671875	-882.8750610351562	736.217041015625	607.829345703125	-888.6015625	809.6821899414062	648.5236206054688	-950.5177612304688	824.7342529296875	608.4559936523438	-517.6187133789062	1703.822143554688	485.5608520507812	-453.6505432128906	1685.995483398438	694.2496337890625	-394.6134948730469	1675.0615234375	616.577880859375	-600.4161987304688	1716.376098632812	603.291259765625	-438.73876953125	936.6583862304688	454.8302917480469	-733.7530517578125	955.5288696289062	683.1797485351562	-617.3991088867188	993.2695922851562	721.1871337890625	-426.0635986328125	993.0328979492188	584.1389770507812	-508.5283203125	500.2172546386719	569.7468872070312	-469.2279663085938	632.2933959960938	518.7385864257812	-625.6663208007812	39.87567901611328	429.9283142089844	-560.269287109375	269.1683349609375	475.0709228515625	-660.2866821289062	38.14480209350586	655.1151733398438	-681.0552368164062	46.60071563720703	598.9075317382812	-586.0989990234375	40.74444198608398	549.02099609375	-687.657958984375	53.53705978393555	369.8098449707031	-626.678955078125	547.2922973632812	812.8792724609375	-701.14013671875	805.3673095703125	748.37353515625	-754.2587280273438	67.62092590332031	736.0093994140625	-654.8561401367188	425.4150390625	807.9210205078125	-607.0578002929688	61.57183456420898	916.4594116210938	-611.0864868164062	61.53977203369141	845.9429931640625	-704.279541015625	62.01063919067383	875.789306640625	-742.5724487304688	63.84060668945312	666.37109375	
560	5.59	-713.1644287109375	1055.106079101562	532.2373657226562	-582.198974609375	1041.72607421875	435.8274230957031	-642.169921875	1112.742065429688	468.7619934082031	-526.2642822265625	1309.130493164062	655.3865966796875	-643.5377197265625	1255.223876953125	435.0205688476562	-599.5576782226562	1523.332153320312	465.217529296875	-538.9512939453125	1433.446899414062	610.7227783203125	-701.1805419921875	1390.605834960938	455.6947631835938	-524.1671752929688	1477.445922851562	405.0704040527344	-413.450927734375	1480.428100585938	461.8670349121094	-360.0810241699219	1354.51318359375	399.3031616210938	-338.73095703125	1140.096923828125	390.0892944335938	-443.7239685058594	1121.083374023438	379.2037658691406	-334.1452941894531	963.3683471679688	590.0703735351562	-322.5324096679688	908.9732055664062	520.1571044921875	-319.5509033203125	1039.439697265625	441.607177734375	-321.1035461425781	819.8807373046875	708.0177612304688	-301.7960510253906	847.75390625	590.5740356445312	-303.8681945800781	891.969970703125	646.8150634765625	-722.9605102539062	1516.86376953125	609.5046997070312	-798.3740844726562	1454.974487304688	622.6513671875	-870.4635009765625	1201.500122070312	570.6801147460938	-782.5442504882812	1161.99755859375	540.9127807617188	-856.0791015625	920.2782592773438	646.8336181640625	-936.6258544921875	929.2825317382812	602.9720458984375	-894.2387084960938	1128.609741210938	578.3375244140625	-878.6167602539062	735.2559814453125	621.7133178710938	-883.4072875976562	808.7756958007812	662.5986938476562	-946.0978393554688	823.7881469726562	623.8443603515625	-515.2626342773438	1703.336181640625	492.4734191894531	-448.5442504882812	1684.730102539062	700.2490844726562	-390.6241760253906	1673.84619140625	621.7449951171875	-596.4786376953125	1715.803344726562	611.456298828125	-437.879150390625	936.1770629882812	459.0181274414062	-728.350830078125	954.9557495117188	693.3571166992188	-611.02001953125	992.6654052734375	728.9094848632812	-422.615966796875	992.3268432617188	588.0728759765625	-506.5959777832031	499.3614196777344	571.5831909179688	-467.6897888183594	631.865478515625	521.1212768554688	-625.6121826171875	40.04252624511719	429.9686889648438	-559.502685546875	269.0953979492188	476.0308837890625	-660.339599609375	38.11997222900391	655.139404296875	-680.9685668945312	46.64889144897461	598.8880615234375	-585.9367065429688	40.69524765014648	548.9898681640625	-687.4212646484375	54.1749382019043	369.8494262695312	-617.8507690429688	547.8338623046875	821.5413208007812	-694.115478515625	805.2750244140625	758.1096801757812	-737.1986694335938	64.36428833007812	760.9983520507812	-643.8321533203125	425.7006225585938	820.1234741210938	-583.8984375	62.70341491699219	936.5198364257812	-590.3013916015625	61.80973434448242	866.16845703125	-682.4451293945312	61.24446487426758	899.1660766601562	-727.6700439453125	59.89405822753906	691.1188354492188	
561	5.600000000000001	-710.606689453125	1054.607666015625	542.0504760742188	-581.546630859375	1041.236694335938	443.0031127929688	-641.1172485351562	1112.234985351562	476.8857727050781	-521.4049072265625	1308.4462890625	661.4735107421875	-643.0185546875	1254.739013671875	443.3533325195312	-598.5284423828125	1522.76416015625	473.0246887207031	-535.0238037109375	1432.77001953125	617.1874389648438	-700.235595703125	1390.076416015625	465.3456420898438	-524.2349243164062	1477.033081054688	411.4157409667969	-412.3583984375	1479.983642578125	465.996826171875	-360.4554443359375	1353.966918945312	402.301025390625	-339.7712097167969	1139.316772460938	392.3651733398438	-445.14453125	1120.848266601562	383.542236328125	-332.6096496582031	960.6380615234375	590.8306274414062	-322.5088806152344	906.9039306640625	520.2048950195312	-320.3198547363281	1038.08984375	442.8466491699219	-318.2194213867188	815.6966552734375	706.9158325195312	-300.7639770507812	844.8909301757812	589.5017700195312	-301.6659851074219	888.4600830078125	646.2714233398438	-719.0313720703125	1516.140747070312	619.7481079101562	-794.145751953125	1454.136596679688	634.4144287109375	-867.0962524414062	1200.462646484375	584.3641357421875	-779.749267578125	1161.032592773438	552.7745361328125	-850.9358520507812	919.3648071289062	660.5126342773438	-932.3724975585938	928.292724609375	618.32958984375	-890.64453125	1127.588989257812	592.5894775390625	-874.1312866210938	734.299560546875	635.9555053710938	-877.9373779296875	807.923095703125	676.9512939453125	-941.43212890625	822.8345947265625	639.5609741210938	-512.8458251953125	1702.83642578125	499.4110717773438	-443.3711242675781	1683.431640625	706.2303466796875	-386.5892944335938	1672.592529296875	626.9108276367188	-592.427978515625	1715.213745117188	619.6665649414062	-436.9970703125	935.7227172851562	463.2047729492188	-722.9281005859375	954.3505249023438	703.4740600585938	-604.5831298828125	991.9942626953125	736.5364379882812	-419.1812438964844	991.5994873046875	591.952880859375	-504.5720825195312	498.5326843261719	573.416748046875	-466.0874633789062	631.452880859375	523.4821166992188	-625.5521240234375	40.2757453918457	430.0115966796875	-558.6822509765625	269.079345703125	476.998291015625	-660.367919921875	38.11121368408203	655.1515502929688	-680.8574829101562	46.71974182128906	598.8784790039062	-585.7551879882812	40.62958526611328	548.96484375	-687.170166015625	54.89053726196289	369.9092102050781	-609.3401489257812	548.2666015625	829.9723510742188	-687.0932006835938	805.0745239257812	767.67529296875	-719.3555297851562	61.58134078979492	784.8049926757812	-632.973388671875	425.9782104492188	831.8575439453125	-560.6181030273438	63.91349411010742	955.4603271484375	-569.2021484375	62.28535842895508	885.3440551757812	-660.2247924804688	60.62865829467773	921.2791748046875	-711.8211059570312	56.54978942871094	714.7604370117188	
